<?xml version="1.0" encoding="UTF-8"?>
<svg version="1.1" xmlns="http://www.w3.org/2000/svg" width="512" height="512">
<path d="M0 0 C0.51675293 0.45616699 1.03350586 0.91233398 1.56591797 1.38232422 C2.07364746 1.82688965 2.58137695 2.27145508 3.10449219 2.72949219 C49.29976065 43.34512013 76.40363443 101.81007641 81.33886719 162.79980469 C84.23372103 208.47624041 76.51894422 255.82408478 54.56591797 296.38232422 C54.17968262 297.09598145 53.79344727 297.80963867 53.39550781 298.54492188 C44.50512193 314.71356063 33.82065709 329.60737696 21.56591797 343.38232422 C21.12425293 343.88570313 20.68258789 344.38908203 20.22753906 344.90771484 C-20.38645185 391.11187537 -78.8562956 418.2195925 -139.8515625 423.15527344 C-205.20657138 427.29730412 -269.3953111 408.26847759 -318.86816406 364.76464844 C-319.38491699 364.30848145 -319.90166992 363.85231445 -320.43408203 363.38232422 C-321.19567627 362.71547607 -321.19567627 362.71547607 -321.97265625 362.03515625 C-368.16792471 321.41952831 -395.27179849 262.95457203 -400.20703125 201.96484375 C-403.10188509 156.28840803 -395.38710828 108.94056366 -373.43408203 68.38232422 C-372.854729 67.31183838 -372.854729 67.31183838 -372.26367188 66.21972656 C-363.37328599 50.05108781 -352.68882115 35.15727148 -340.43408203 21.38232422 C-339.99241699 20.87894531 -339.55075195 20.37556641 -339.09570312 19.85693359 C-298.48171221 -26.34722693 -240.01186846 -53.45494406 -179.01660156 -58.390625 C-113.66159268 -62.53265568 -49.47285296 -43.50382915 0 0 Z " fill="#0E214B" transform="translate(415.43408203125,77.61767578125)"/>
<path d="M0 0 C3.66582607 -0.20521049 7.3301594 -0.32825201 11 -0.4375 C12.02996094 -0.49615234 13.05992188 -0.55480469 14.12109375 -0.61523438 C19.6676691 -0.73888414 23.19760499 -0.46935245 27.51953125 3.19921875 C30.26091684 6.00189404 32.6442442 8.89432549 34.6875 12.25 C35.46673828 13.49523437 35.46673828 13.49523437 36.26171875 14.765625 C40.52939351 22.70637714 43.83889905 30.77455578 46.3125 39.4375 C46.60463379 40.45279785 46.89676758 41.4680957 47.19775391 42.51416016 C51.4831117 57.84037631 54.6830387 73.44240606 58 89 C58.1783136 89.83585632 58.3566272 90.67171265 58.54034424 91.53289795 C59.09091986 94.11433269 59.64119618 96.69583108 60.19140625 99.27734375 C60.7514788 101.90452706 61.31158967 104.53170215 61.87185669 107.15884399 C62.2502356 108.93396881 62.62822372 110.70917698 63.00582886 112.48446655 C65.68761606 125.08374141 68.5035592 137.64470213 71.4375 150.1875 C74.73217437 164.27841425 77.82892754 178.40252028 80.8125 192.5625 C85.43058748 214.47846366 90.25927781 236.34443904 95.140625 258.203125 C95.37101974 259.23582016 95.60141449 260.26851532 95.83879089 261.33250427 C97.11689612 267.05849679 98.40174066 272.78289896 99.69335938 278.50585938 C100.24873553 280.97785613 100.804075 283.44986113 101.359375 285.921875 C101.62333069 287.08503235 101.88728638 288.2481897 102.15924072 289.44659424 C102.40027527 290.52221619 102.64130981 291.59783813 102.88964844 292.70605469 C103.10441833 293.65760437 103.31918823 294.60915405 103.54046631 295.58953857 C104 298 104 298 104 301 C100.04 301 96.08 301 92 301 C89.37790804 291.41441077 86.97652394 281.8198166 84.84301758 272.11206055 C84.55188785 270.79864055 84.26047653 269.48528294 83.96881104 268.17198181 C83.18660236 264.64601482 82.40837816 261.11917989 81.63100648 257.59214377 C80.80329601 253.83973611 79.9720437 250.08811288 79.14128113 246.33638 C77.74132637 240.01176472 76.34383335 233.68660964 74.94799805 227.36108398 C73.53545138 220.95988717 72.12086192 214.55914705 70.70385742 208.15893555 C56.47369201 143.8850622 56.47369201 143.8850622 50.81221008 117.11210632 C47.41027507 101.04957614 43.69936868 85.05937021 39.94873047 69.07519531 C39.12254111 65.54183658 38.32358012 62.00293594 37.53515625 58.4609375 C33.51491968 40.55798144 28.3276656 19.65801276 13 8 C8.7591206 5.45059779 4.44897591 3.17023215 0 1 C0 0.67 0 0.34 0 0 Z " fill="#73C0F2" transform="translate(98,130)"/>
<path d="M0 0 C3.31248187 -0.02888146 6.62493167 -0.04675799 9.9375 -0.0625 C10.88302734 -0.07087891 11.82855469 -0.07925781 12.80273438 -0.08789062 C14.15141602 -0.09272461 14.15141602 -0.09272461 15.52734375 -0.09765625 C16.77632446 -0.10551147 16.77632446 -0.10551147 18.05053711 -0.11352539 C20 0 20 0 21 1 C21.43477325 3.41471187 21.82018856 5.82474179 22.1875 8.25 C28.19030082 45.58366935 37.6061335 82.49452951 46.17593384 119.30389404 C49.295684 132.72441208 52.20873828 146.18372735 55.0640564 159.66271973 C57.72282118 172.20378601 60.51559507 184.70524004 63.4375 197.1875 C67.31248001 213.74651596 70.88290152 230.36203364 74.39013672 247.00244141 C77.12690128 259.97519342 79.95904301 272.92114285 82.93212891 285.84179688 C83.19300293 286.97810547 83.45387695 288.11441406 83.72265625 289.28515625 C83.94703369 290.25332275 84.17141113 291.22148926 84.40258789 292.21899414 C85.02742759 295.12767784 85.51090637 298.06543821 86 301 C81.71 301 77.42 301 73 301 C72.77449463 299.93193115 72.54898926 298.8638623 72.31665039 297.76342773 C67.94709954 277.09626418 63.47034599 256.46286381 58.67044067 235.89108276 C56.50701973 226.61371319 54.39005737 217.33784251 52.5 208 C50.54689023 198.37503489 48.3570349 188.81303062 46.125 179.25 C41.75058089 160.49036526 37.58188551 141.68646847 33.4375 122.875 C33.19198647 121.76109138 33.19198647 121.76109138 32.94151306 120.62467957 C29.20579985 103.67494729 25.49377966 86.72060343 21.85739136 69.74923706 C16.72799916 45.78400726 16.72799916 45.78400726 9.9375 22.25 C9.70401855 21.53432861 9.47053711 20.81865723 9.22998047 20.08129883 C6.99748112 13.51799897 4.23772265 7.50903944 0 2 C0 1.34 0 0.68 0 0 Z " fill="#308BEA" transform="translate(141,130)"/>
<path d="M0 0 C5.94 0 11.88 0 18 0 C17.67 1.588125 17.34 3.17625 17 4.8125 C12.62831245 32.95321468 21.58521953 61.41942997 27.94506836 88.70214844 C30.46408855 99.52234912 32.80068173 110.37329693 35.0625 121.25 C37.48195631 132.87893335 39.97694641 144.4834106 42.625 156.0625 C45.13073947 167.02414483 47.48142736 178.0079731 49.7331543 189.02441406 C51.42876767 197.29815646 53.18725447 205.55641433 54.99731445 213.8057251 C55.43498694 215.80104314 55.87091181 217.79673718 56.30664062 219.79248047 C57.6836654 226.08642092 59.0800498 232.37506477 60.5224762 238.65437317 C61.19405179 241.58370919 61.85661607 244.5150499 62.51834106 247.44662476 C62.83581174 248.84123885 63.15771149 250.23485318 63.48434448 251.62734985 C63.93813403 253.56280628 64.37563407 255.50205979 64.8125 257.44140625 C65.06644531 258.54170166 65.32039063 259.64199707 65.58203125 260.77563477 C66.40342793 267.11219198 64.87392598 271.87703378 61.9375 277.4375 C61.11572266 279.01337891 61.11572266 279.01337891 60.27734375 280.62109375 C59.85582031 281.40613281 59.43429688 282.19117188 59 283 C56.04279565 280.04279565 55.78296275 276.40781788 54.93359375 272.4375 C54.73898056 271.55589203 54.54436737 270.67428406 54.34385681 269.76596069 C53.70120942 266.84549994 53.06932526 263.9228195 52.4375 261 C51.99031736 258.95771988 51.54255609 256.91556638 51.09423828 254.87353516 C47.94793098 240.50818061 44.87568543 226.12670908 41.81491089 211.74291992 C39.15773257 199.25895189 36.38511963 186.80737756 33.50769043 174.37246704 C30.55154325 161.58378203 27.78847324 148.75855321 25.06402588 135.91873169 C22.12078099 122.06335777 19.03918282 108.24400919 15.875 94.4375 C11.99363388 77.49882207 8.28302559 60.533705 4.73999023 43.52099609 C3.7233019 38.6834246 2.67136743 33.85362115 1.61572266 29.02441406 C-0.34661527 19.38545997 -0.08299647 9.7935836 0 0 Z " fill="#308BE9" transform="translate(177,130)"/>
<path d="M0 0 C1.18613892 0.00785522 1.18613892 0.00785522 2.39624023 0.01586914 C3.67724609 0.02070313 3.67724609 0.02070313 4.98413086 0.02563477 C5.88196289 0.03401367 6.77979492 0.04239258 7.70483398 0.05102539 C8.6065332 0.05553711 9.50823242 0.06004883 10.43725586 0.06469727 C12.67234712 0.07652315 14.90730835 0.09300319 17.14233398 0.11352539 C15.4442226 3.56808708 13.48881716 6.71363914 11.36108398 9.91821289 C7.60517564 16.68366318 7.79336193 23.27319378 7.82983398 30.80102539 C7.83829346 32.61860352 7.83829346 32.61860352 7.84692383 34.47290039 C7.98287131 44.62723502 9.02537655 54.19725107 11.14233398 64.11352539 C11.35696289 65.12350586 11.5715918 66.13348633 11.79272461 67.17407227 C13.27097532 74.052214 14.81697167 80.91399304 16.38256836 87.77270508 C19.36381748 100.88177094 22.16472961 114.01150614 24.62988281 127.22729492 C25.98267558 134.41940861 27.5079581 141.56593897 29.08251953 148.71240234 C31.07404639 157.75499067 32.98770392 166.81349719 34.89031982 175.87512207 C36.64784779 184.23785699 38.46263295 192.5841273 40.36889648 200.91430664 C40.74093091 202.54946882 41.11292021 204.18464126 41.48486328 205.81982422 C42.1970301 208.94854643 42.92173888 212.07401068 43.65332031 215.19824219 C48.02119791 234.13321468 48.02119791 234.13321468 42.64233398 243.67602539 C42.1415332 244.61671875 42.1415332 244.61671875 41.63061523 245.57641602 C40.81770166 247.09772571 39.98237417 248.60702476 39.14233398 250.11352539 C38.81233398 250.11352539 38.48233398 250.11352539 38.14233398 250.11352539 C35.97071987 240.26044376 33.80455875 230.40617112 31.64233398 220.55102539 C31.48172234 219.81911106 31.32111069 219.08719673 31.15563202 218.33310318 C27.07800602 199.74647487 23.05880054 181.15304858 19.30377197 162.49804688 C16.89904243 150.56793239 14.26215075 138.70515741 11.50592041 126.85162354 C8.93797855 115.7959907 6.60692707 104.71390669 4.44189453 93.57104492 C3.06871508 86.56544687 1.60239326 79.59221771 0.02905273 72.62915039 C-0.15301727 71.82186996 -0.33508728 71.01458954 -0.52267456 70.18284607 C-1.41467751 66.23735734 -2.31629745 62.29435646 -3.23071289 58.35400391 C-5.00399628 50.6287527 -6.49834381 43.05446992 -6.85766602 35.11352539 C-6.90141357 34.21883545 -6.94516113 33.32414551 -6.99023438 32.40234375 C-7.81037778 11.03883932 -7.81037778 11.03883932 -2.85766602 1.11352539 C-1.85766602 0.11352539 -1.85766602 0.11352539 0 0 Z " fill="#F87634" transform="translate(212.857666015625,129.886474609375)"/>
<path d="M0 0 C1.30195313 0.00322266 2.60390625 0.00644531 3.9453125 0.00976562 C5.32552149 0.01812159 6.70572982 0.02658654 8.0859375 0.03515625 C9.47395676 0.04017124 10.86197772 0.04473415 12.25 0.04882812 C15.65368882 0.06064649 19.05729189 0.07712191 22.4609375 0.09765625 C19.33621555 2.18080422 17.00457357 2.8352682 13.3984375 3.78515625 C4.47607255 6.48076484 -2.75116647 10.59007946 -7.50390625 18.8125 C-18.11608591 42.23938718 -8.51727877 70.18741319 -3.54467773 94.11242676 C-2.50223066 99.15051738 -1.48445974 104.19357674 -0.46484375 109.23632812 C1.10713508 116.9976214 2.69254713 124.75602604 4.28955078 132.51220703 C6.42249842 142.87503161 8.50390849 153.24756257 10.55215454 163.62745667 C12.23814675 172.12955831 14.07474538 180.59322733 16.01052856 189.04188538 C17.83576483 197.0595686 17.9694734 202.05918638 13.9609375 209.47265625 C13.62707031 210.11332031 13.29320312 210.75398437 12.94921875 211.4140625 C12.13067299 212.98099296 11.29729237 214.54015866 10.4609375 216.09765625 C9.8009375 216.09765625 9.1409375 216.09765625 8.4609375 216.09765625 C5.63145261 202.50118275 2.80286968 188.90464961 0.0859375 175.28515625 C-0.1090332 174.30788574 -0.30400391 173.33061523 -0.50488281 172.32373047 C-1.4847835 167.40505841 -2.4621281 162.48588133 -3.43798828 157.56640625 C-7.19915835 138.61072745 -11.00961433 119.67347579 -15.09765625 100.78515625 C-17.4425137 89.94240646 -19.70555539 79.08315211 -21.90478516 68.20996094 C-22.44964792 65.53640032 -23.01312007 62.86772352 -23.58203125 60.19921875 C-26.76102917 44.71834472 -28.35355686 26.93955856 -20.18359375 12.7421875 C-14.90311388 5.19662243 -9.34681015 -0.04063831 0 0 Z " fill="#8ABB87" transform="translate(258.5390625,129.90234375)"/>
<path d="M0 0 C1.58324199 0.04022992 3.16658379 0.07671377 4.75 0.109375 C8.58585003 0.1965138 12.4167887 0.33394953 16.25 0.5 C13.48378904 3.26621096 10.20089436 3.94434482 6.5625 5.125 C-37.4419062 20.11366536 -61.84778923 59.703535 -82.89672852 98.56420898 C-84.58172995 101.63342023 -86.20939287 104.10270228 -88.75 106.5 C-86.25958791 97.98016916 -82.36501432 90.26385803 -78.375 82.375 C-78.02129333 81.67190704 -77.66758667 80.96881409 -77.30316162 80.24441528 C-36.0814844 -1.61105196 -36.0814844 -1.61105196 0 0 Z " fill="#2F8AE8" transform="translate(416.75,129.5)"/>
<path d="M0 0 C8.25 0 16.5 0 25 0 C23.38634368 3.22731265 21.67005011 6.34558871 19.88037109 9.47583008 C4.97837732 35.72965381 -6.69246615 63.7857109 -18.171875 91.66796875 C-18.63577637 92.79452881 -19.09967773 93.92108887 -19.57763672 95.08178711 C-20.41975667 97.13827762 -21.25512671 99.19754998 -22.08251953 101.26000977 C-22.44458496 102.14873779 -22.80665039 103.03746582 -23.1796875 103.953125 C-23.63964111 105.10022949 -23.63964111 105.10022949 -24.10888672 106.27050781 C-25 108 -25 108 -27 109 C-25.19591134 102.62686071 -23.11431342 96.38831183 -20.890625 90.15234375 C-20.60133118 89.34082855 -20.31203735 88.52931335 -20.01397705 87.69320679 C-19.40565355 85.9875497 -18.79727417 84.28191254 -18.18884277 82.57629395 C-13.73511182 70.05824661 -9.32313774 57.55307219 -5.75 44.75 C-5.48735352 43.81406006 -5.22470703 42.87812012 -4.95410156 41.91381836 C-2.14045853 31.43901095 -0.72925433 21.0791016 -0.375 10.25 C-0.189375 5.17625 -0.189375 5.17625 0 0 Z " fill="#F47534" transform="translate(351,130)"/>
<path d="M0 0 C3.87397689 -0.23331804 7.74614424 -0.3747313 11.625 -0.5 C12.71941406 -0.56703125 13.81382812 -0.6340625 14.94140625 -0.703125 C22.91139633 -0.89633688 22.91139633 -0.89633688 26.04858398 1.68676758 C27.607818 3.73212546 28.84377637 5.70548906 30 8 C30.48424438 8.94008911 30.48424438 8.94008911 30.97827148 9.89916992 C42.72371051 35.07778885 26.238747 74.64386318 18 99 C16.87843217 95.62155302 17.14267587 93.33369438 17.92578125 89.88671875 C18.14468018 88.89389893 18.3635791 87.9010791 18.58911133 86.87817383 C18.82782959 85.82525146 19.06654785 84.7723291 19.3125 83.6875 C24.0160763 61.88148083 29.81944195 34.17789419 17 14 C13.66662569 9.14279743 10.25534846 6.74284369 5.0859375 4.17578125 C2.99235815 2.99569251 1.65267925 1.72131994 0 0 Z " fill="#88B986" transform="translate(308,130)"/>
<path d="M0 0 C1 3 1 3 -0.03222656 5.58447266 C-0.82838379 7.10886963 -0.82838379 7.10886963 -1.640625 8.6640625 C-2.21683594 9.78683594 -2.79304688 10.90960938 -3.38671875 12.06640625 C-4.00698168 13.25303881 -4.62808134 14.43923437 -5.25 15.625 C-9.07737912 22.9752141 -12.65608123 30.03407315 -15 38 C-15.33 38 -15.66 38 -16 38 C-15.45877984 32.8516072 -14.22832811 28.53483039 -12.12890625 23.7890625 C-11.70532082 22.80865494 -11.70532082 22.80865494 -11.2731781 21.80844116 C-10.67966677 20.44031496 -10.08195696 19.07400304 -9.48022461 17.70947266 C-8.55789886 15.61454921 -7.6521638 13.51299275 -6.74804688 11.41015625 C-6.16763298 10.07770366 -5.58628609 8.745657 -5.00390625 7.4140625 C-4.21222046 5.60349365 -4.21222046 5.60349365 -3.40454102 3.75634766 C-2 1 -2 1 0 0 Z " fill="#1F3058" transform="translate(342,202)"/>
<path d="M0 0 C0.33 0.66 0.66 1.32 1 2 C1.66 2.33 2.32 2.66 3 3 C0.36 10.26 -2.28 17.52 -5 25 C-5.66 25 -6.32 25 -7 25 C-7.33 25.66 -7.66 26.32 -8 27 C-7.37131631 19.33005894 -7.37131631 19.33005894 -5.59375 17.75 C-3.0449772 14.95134752 -2.62063089 11.41292749 -1.8125 7.8125 C-1.63525391 7.06291016 -1.45800781 6.31332031 -1.27539062 5.54101562 C-0.84063737 3.69625181 -0.41902724 1.84839934 0 0 Z " fill="#243551" transform="translate(331,209)"/>
<path d="M0 0 C-1.5625 16.5625 -1.5625 16.5625 -6 21 C-4.87288136 7.05932203 -4.87288136 7.05932203 -3 1 C-1 0 -1 0 0 0 Z " fill="#7BA980" transform="translate(331,208)"/>
<path d="M0 0 C0.99 0.33 1.98 0.66 3 1 C1.73586702 3.44118791 0.46407987 5.87783192 -0.8125 8.3125 C-1.16892578 9.00279297 -1.52535156 9.69308594 -1.89257812 10.40429688 C-2.24384766 11.07138672 -2.59511719 11.73847656 -2.95703125 12.42578125 C-3.27647705 13.03848877 -3.59592285 13.65119629 -3.92504883 14.2824707 C-5.08538924 16.13643272 -6.40296797 17.51434256 -8 19 C-6.00386732 12.2813095 -3.2708579 6.19265192 0 0 Z " fill="#2B7CD3" transform="translate(336,217)"/>
<path d="M0 0 C0.99 0.33 1.98 0.66 3 1 C1.7192029 4.15036923 0.42357064 7.29441985 -0.875 10.4375 C-1.23980469 11.33533203 -1.60460937 12.23316406 -1.98046875 13.15820312 C-2.33496094 14.01220703 -2.68945312 14.86621094 -3.0546875 15.74609375 C-3.37937012 16.53685303 -3.70405273 17.3276123 -4.03857422 18.14233398 C-5 20 -5 20 -7 21 C-4.96192707 13.8821847 -2.59655258 6.93292719 0 0 Z " fill="#D06838" transform="translate(331,218)"/>
<path d="M0 0 C0.88336837 2.4667645 1.1312406 3.63859372 0.22265625 6.140625 C-0.16019531 6.83671875 -0.54304688 7.5328125 -0.9375 8.25 C-1.31777344 8.95640625 -1.69804687 9.6628125 -2.08984375 10.390625 C-2.39019531 10.92171875 -2.69054687 11.4528125 -3 12 C-3.66 12 -4.32 12 -5 12 C-4.74337755 10.55989519 -4.46909179 9.1229313 -4.1875 7.6875 C-4.03667969 6.88699219 -3.88585937 6.08648437 -3.73046875 5.26171875 C-2.92427764 2.76554413 -1.97947998 1.67577894 0 0 Z " fill="#E56F36" transform="translate(337,206)"/>
<path d="M0 0 C1.12377697 3.30435084 0.89554742 5.0506862 -0.4375 8.25 C-0.72496094 8.95640625 -1.01242187 9.6628125 -1.30859375 10.390625 C-1.53675781 10.92171875 -1.76492188 11.4528125 -2 12 C-2.66 12 -3.32 12 -4 12 C-4.33 12.66 -4.66 13.32 -5 14 C-4.38210766 6.46171342 -4.38210766 6.46171342 -2.5 4.1875 C-2.005 3.795625 -1.51 3.40375 -1 3 C-0.67 2.01 -0.34 1.02 0 0 Z " fill="#41585E" transform="translate(328,222)"/>
</svg>
